<svg width="1294" height="4440" viewBox="0 0 1294 4440" fill="none" xmlns="http://www.w3.org/2000/svg">
<rect y="30" width="30" height="30" fill="black"/>
<rect x="30" y="60" width="30" height="30" fill="black"/>
<rect x="60" y="90" width="30" height="30" fill="black"/>
<rect x="91" y="60" width="30" height="30" fill="black"/>
<rect x="150" y="60" width="30" height="30" fill="black"/>
<rect x="180" y="60" width="30" height="30" fill="black"/>
<rect x="240" y="120" width="30" height="30" fill="black"/>
<rect x="270" y="120" width="30" height="30" fill="black"/>
<rect x="300" y="150" width="30" height="30" fill="black"/>
<rect x="330" y="90" width="30" height="30" fill="black"/>
<rect x="300" y="180" width="30" height="30" fill="black"/>
<rect x="330" y="210" width="30" height="30" fill="black"/>
<rect x="360" y="210" width="30" height="30" fill="black"/>
<rect x="390" y="210" width="30" height="30" fill="black"/>
<rect y="210" width="30" height="30" fill="black"/>
<rect x="30" y="210" width="30" height="30" fill="black"/>
<rect x="60" y="210" width="30" height="30" fill="black"/>
<rect x="90" y="210" width="30" height="30" fill="black"/>
<rect x="120" y="210" width="30" height="30" fill="black"/>
<rect x="150" y="210" width="30" height="30" fill="black"/>
<rect x="180" y="210" width="30" height="30" fill="black"/>
<rect x="210" y="210" width="30" height="30" fill="black"/>
<rect x="240" y="210" width="30" height="30" fill="black"/>
<rect x="270" y="210" width="30" height="30" fill="black"/>
<rect y="180" width="30" height="30" fill="black"/>
<rect x="30" y="180" width="30" height="30" fill="black"/>
<rect x="60" y="180" width="30" height="30" fill="black"/>
<rect x="90" y="180" width="30" height="30" fill="black"/>
<rect x="120" y="180" width="30" height="30" fill="black"/>
<rect x="150" y="180" width="30" height="30" fill="black"/>
<rect x="180" y="180" width="30" height="30" fill="black"/>
<rect x="210" y="180" width="30" height="30" fill="black"/>
<rect x="240" y="180" width="30" height="30" fill="black"/>
<rect x="270" y="180" width="30" height="30" fill="black"/>
<rect y="150" width="30" height="30" fill="black"/>
<rect x="30" y="150" width="30" height="30" fill="black"/>
<rect x="60" y="150" width="30" height="30" fill="black"/>
<rect y="120" width="30" height="30" fill="black"/>
<rect x="30" y="120" width="30" height="30" fill="black"/>
<rect y="120" width="30" height="30" fill="black"/>
<rect x="30" y="120" width="30" height="30" fill="black"/>
<rect y="90" width="30" height="30" fill="black"/>
<rect x="30" y="90" width="30" height="30" fill="black"/>
<rect y="90" width="30" height="30" fill="black"/>
<rect y="60" width="30" height="30" fill="black"/>
<rect x="30" y="90" width="30" height="30" fill="black"/>
<rect x="60" y="120" width="30" height="30" fill="black"/>
<rect x="90" y="150" width="30" height="30" fill="black"/>
<rect x="120" y="150" width="30" height="30" fill="black"/>
<rect x="150" y="150" width="30" height="30" fill="black"/>
<rect x="180" y="150" width="30" height="30" fill="black"/>
<rect x="210" y="150" width="30" height="30" fill="black"/>
<rect x="120" y="120" width="30" height="30" fill="black"/>
<rect x="150" y="120" width="30" height="30" fill="black"/>
<rect x="180" y="120" width="30" height="30" fill="black"/>
<rect x="150" y="90" width="30" height="30" fill="black"/>
<rect x="180" y="90" width="30" height="30" fill="black"/>
<rect x="210" y="120" width="30" height="30" fill="black"/>
<rect x="240" y="150" width="30" height="30" fill="black"/>
<rect x="270" y="150" width="30" height="30" fill="black"/>
<rect x="300" y="210" width="30" height="30" fill="black"/>
<rect x="720" y="180" width="30" height="30" fill="black"/>
<rect x="420" y="210" width="30" height="30" fill="black"/>
<rect x="450" y="210" width="30" height="30" fill="black"/>
<rect x="480" y="210" width="30" height="30" fill="black"/>
<rect x="510" y="210" width="30" height="30" fill="black"/>
<rect x="540" y="210" width="30" height="30" fill="black"/>
<rect x="570" y="210" width="30" height="30" fill="black"/>
<rect x="600" y="210" width="30" height="30" fill="black"/>
<rect x="630" y="210" width="30" height="30" fill="black"/>
<rect x="660" y="210" width="30" height="30" fill="black"/>
<rect x="690" y="210" width="30" height="30" fill="black"/>
<rect x="420" y="180" width="30" height="30" fill="black"/>
<rect x="450" y="180" width="30" height="30" fill="black"/>
<rect x="480" y="180" width="30" height="30" fill="black"/>
<rect x="510" y="180" width="30" height="30" fill="black"/>
<rect x="450" y="150" width="30" height="30" fill="black"/>
<rect x="480" y="150" width="30" height="30" fill="black"/>
<rect x="510" y="150" width="30" height="30" fill="black"/>
<rect x="540" y="180" width="30" height="30" fill="black"/>
<rect x="570" y="180" width="30" height="30" fill="black"/>
<rect x="600" y="180" width="30" height="30" fill="black"/>
<rect x="630" y="180" width="30" height="30" fill="black"/>
<rect x="660" y="180" width="30" height="30" fill="black"/>
<rect x="690" y="180" width="30" height="30" fill="black"/>
<rect x="720" y="210" width="30" height="30" fill="black"/>
<rect x="900" y="180" width="30" height="30" fill="black"/>
<rect x="750" y="210" width="30" height="30" fill="black"/>
<rect x="780" y="210" width="30" height="30" fill="black"/>
<rect x="810" y="210" width="30" height="30" fill="black"/>
<rect x="840" y="210" width="30" height="30" fill="black"/>
<rect x="870" y="210" width="30" height="30" fill="black"/>
<rect x="750" y="180" width="30" height="30" fill="black"/>
<rect x="780" y="180" width="30" height="30" fill="black"/>
<rect x="810" y="180" width="30" height="30" fill="black"/>
<rect x="840" y="180" width="30" height="30" fill="black"/>
<rect x="870" y="180" width="30" height="30" fill="black"/>
<rect x="900" y="210" width="30" height="30" fill="black"/>
<rect x="1080" y="180" width="30" height="30" fill="black"/>
<rect x="930" y="210" width="30" height="30" fill="black"/>
<rect x="960" y="210" width="30" height="30" fill="black"/>
<rect x="990" y="210" width="30" height="30" fill="black"/>
<rect x="1020" y="210" width="30" height="30" fill="black"/>
<rect x="1050" y="210" width="30" height="30" fill="black"/>
<rect x="930" y="180" width="30" height="30" fill="black"/>
<rect x="720" y="150" width="30" height="30" fill="black"/>
<rect x="570" y="150" width="30" height="30" fill="black"/>
<rect x="600" y="150" width="30" height="30" fill="black"/>
<rect x="630" y="150" width="30" height="30" fill="black"/>
<rect x="660" y="150" width="30" height="30" fill="black"/>
<rect x="600" y="120" width="30" height="30" fill="black"/>
<rect x="630" y="120" width="30" height="30" fill="black"/>
<rect x="630" y="90" width="30" height="30" fill="black"/>
<rect x="660" y="120" width="30" height="30" fill="black"/>
<rect x="690" y="150" width="30" height="30" fill="black"/>
<rect x="900" y="150" width="30" height="30" fill="black"/>
<rect x="750" y="150" width="30" height="30" fill="black"/>
<rect x="780" y="150" width="30" height="30" fill="black"/>
<rect x="810" y="150" width="30" height="30" fill="black"/>
<rect x="840" y="150" width="30" height="30" fill="black"/>
<rect x="870" y="150" width="30" height="30" fill="black"/>
<rect x="900" y="120" width="30" height="30" fill="black"/>
<rect x="750" y="120" width="30" height="30" fill="black"/>
<rect x="780" y="120" width="30" height="30" fill="black"/>
<rect x="810" y="120" width="30" height="30" fill="black"/>
<rect x="840" y="120" width="30" height="30" fill="black"/>
<rect x="870" y="120" width="30" height="30" fill="black"/>
<rect x="900" y="90" width="30" height="30" fill="black"/>
<rect x="810" y="90" width="30" height="30" fill="black"/>
<rect x="840" y="90" width="30" height="30" fill="black"/>
<rect x="870" y="90" width="30" height="30" fill="black"/>
<rect x="840" y="60" width="30" height="30" fill="black"/>
<rect x="870" y="60" width="30" height="30" fill="black"/>
<rect x="930" y="150" width="30" height="30" fill="black"/>
<rect x="960" y="180" width="30" height="30" fill="black"/>
<rect x="990" y="180" width="30" height="30" fill="black"/>
<rect x="1020" y="180" width="30" height="30" fill="black"/>
<rect x="1050" y="180" width="30" height="30" fill="black"/>
<rect x="1080" y="210" width="30" height="30" fill="black"/>
<rect x="1260" y="180" width="30" height="30" fill="black"/>
<rect x="1110" y="210" width="30" height="30" fill="black"/>
<rect x="1140" y="210" width="30" height="30" fill="black"/>
<rect x="1170" y="210" width="30" height="30" fill="black"/>
<rect x="1200" y="210" width="30" height="30" fill="black"/>
<rect x="1230" y="210" width="30" height="30" fill="black"/>
<rect x="1110" y="180" width="30" height="30" fill="black"/>
<rect x="1140" y="180" width="30" height="30" fill="black"/>
<rect x="1170" y="180" width="30" height="30" fill="black"/>
<rect x="1200" y="180" width="30" height="30" fill="black"/>
<rect x="1230" y="180" width="30" height="30" fill="black"/>
<rect x="1080" y="150" width="30" height="30" fill="black"/>
<rect x="990" y="150" width="30" height="30" fill="black"/>
<rect x="1020" y="150" width="30" height="30" fill="black"/>
<rect x="1050" y="150" width="30" height="30" fill="black"/>
<rect x="1260" y="150" width="30" height="30" fill="black"/>
<rect x="1110" y="150" width="30" height="30" fill="black"/>
<rect x="1140" y="150" width="30" height="30" fill="black"/>
<rect x="1170" y="150" width="30" height="30" fill="black"/>
<rect x="1200" y="150" width="30" height="30" fill="black"/>
<rect x="1230" y="150" width="30" height="30" fill="black"/>
<rect x="1080" y="120" width="30" height="30" fill="black"/>
<rect x="1020" y="120" width="30" height="30" fill="black"/>
<rect x="1050" y="120" width="30" height="30" fill="black"/>
<rect x="1260" y="120" width="30" height="30" fill="black"/>
<rect x="1110" y="120" width="30" height="30" fill="black"/>
<rect x="1140" y="120" width="30" height="30" fill="black"/>
<rect x="1170" y="120" width="30" height="30" fill="black"/>
<rect x="1200" y="120" width="30" height="30" fill="black"/>
<rect x="1230" y="120" width="30" height="30" fill="black"/>
<rect x="1080" y="90" width="30" height="30" fill="black"/>
<rect x="1260" y="90" width="30" height="30" fill="black"/>
<rect x="1260" y="60" width="30" height="30" fill="black"/>
<rect x="1110" y="90" width="30" height="30" fill="black"/>
<rect x="1110" y="60" width="30" height="30" fill="black"/>
<rect x="1140" y="90" width="30" height="30" fill="black"/>
<rect x="1170" y="90" width="30" height="30" fill="black"/>
<rect x="1200" y="90" width="30" height="30" fill="black"/>
<rect x="1170" y="60" width="30" height="30" fill="black"/>
<rect x="1200" y="60" width="30" height="30" fill="black"/>
<rect x="1230" y="90" width="30" height="30" fill="black"/>
<rect x="1260" y="210" width="30" height="30" fill="black"/>
<rect x="390" y="180" width="30" height="30" fill="black"/>
<rect x="360" y="150" width="30" height="30" fill="black"/>
<rect x="420" y="150" width="30" height="30" fill="black"/>
<rect x="450" y="120" width="30" height="30" fill="black"/>
<rect x="480" y="120" width="30" height="30" fill="black"/>
<rect x="510" y="120" width="30" height="30" fill="black"/>
<rect x="540" y="150" width="30" height="30" fill="black"/>
<rect x="570" y="120" width="30" height="30" fill="black"/>
<rect x="600" y="90" width="30" height="30" fill="black"/>
<rect x="600" y="60" width="30" height="30" fill="black"/>
<rect x="630" y="60" width="30" height="30" fill="black"/>
<rect x="660" y="90" width="30" height="30" fill="black"/>
<rect x="690" y="120" width="30" height="30" fill="black"/>
<rect x="720" y="120" width="30" height="30" fill="black"/>
<rect x="750" y="90" width="30" height="30" fill="black"/>
<rect x="780" y="90" width="30" height="30" fill="black"/>
<rect x="810" y="60" width="30" height="30" fill="black"/>
<rect x="840" y="30" width="30" height="30" fill="black"/>
<rect x="870" y="30" width="30" height="30" fill="black"/>
<rect x="900" y="60" width="30" height="30" fill="black"/>
<rect x="930" y="90" width="30" height="30" fill="black"/>
<rect x="930" y="120" width="30" height="30" fill="black"/>
<rect x="960" y="150" width="30" height="30" fill="black"/>
<rect x="990" y="120" width="30" height="30" fill="black"/>
<rect x="1020" y="90" width="30" height="30" fill="black"/>
<rect x="1050" y="90" width="30" height="30" fill="black"/>
<rect x="1080" y="60" width="30" height="30" fill="black"/>
<rect x="1110" y="30" width="30" height="30" fill="black"/>
<rect x="1140" y="60" width="30" height="30" fill="black"/>
<rect x="1170" y="30" width="30" height="30" fill="black"/>
<rect x="1200" y="30" width="30" height="30" fill="black"/>
<rect x="1230" y="60" width="30" height="30" fill="black"/>
<rect x="1260" y="30" width="30" height="30" fill="black"/>
<rect x="990" y="30" width="30" height="30" fill="black"/>
<rect x="960" width="30" height="30" fill="black"/>
<rect x="390" y="60" width="30" height="30" fill="black"/>
<rect x="210" y="90" width="30" height="30" fill="black"/>
<rect x="120" y="90" width="30" height="30" fill="black"/>
<rect x="90" y="120" width="30" height="30" fill="black"/>
<rect width="30" height="30" transform="matrix(1 0 0 -1 95 4401)" fill="black"/>
<rect width="30" height="30" transform="matrix(1 0 0 -1 334 4371)" fill="black"/>
<rect width="30" height="30" transform="matrix(1 0 0 -1 4 4251)" fill="black"/>
<rect width="30" height="30" transform="matrix(1 0 0 -1 34 4251)" fill="black"/>
<rect width="30" height="30" transform="matrix(1 0 0 -1 64 4251)" fill="black"/>
<rect width="30" height="30" transform="matrix(1 0 0 -1 94 4251)" fill="black"/>
<rect width="30" height="30" transform="matrix(1 0 0 -1 124 4251)" fill="black"/>
<rect width="30" height="30" transform="matrix(1 0 0 -1 154 4251)" fill="black"/>
<rect width="30" height="30" transform="matrix(1 0 0 -1 184 4251)" fill="black"/>
<rect width="30" height="30" transform="matrix(1 0 0 -1 214 4251)" fill="black"/>
<rect width="30" height="30" transform="matrix(1 0 0 -1 244 4251)" fill="black"/>
<rect width="30" height="30" transform="matrix(1 0 0 -1 274 4251)" fill="black"/>
<rect width="30" height="30" transform="matrix(1 0 0 -1 4 4281)" fill="black"/>
<rect width="30" height="30" transform="matrix(1 0 0 -1 34 4281)" fill="black"/>
<rect width="30" height="30" transform="matrix(1 0 0 -1 64 4281)" fill="black"/>
<rect width="30" height="30" transform="matrix(1 0 0 -1 94 4281)" fill="black"/>
<rect width="30" height="30" transform="matrix(1 0 0 -1 124 4281)" fill="black"/>
<rect width="30" height="30" transform="matrix(1 0 0 -1 154 4281)" fill="black"/>
<rect width="30" height="30" transform="matrix(1 0 0 -1 184 4281)" fill="black"/>
<rect width="30" height="30" transform="matrix(1 0 0 -1 214 4281)" fill="black"/>
<rect width="30" height="30" transform="matrix(1 0 0 -1 244 4281)" fill="black"/>
<rect width="30" height="30" transform="matrix(1 0 0 -1 274 4281)" fill="black"/>
<rect width="30" height="30" transform="matrix(1 0 0 -1 4 4311)" fill="black"/>
<rect width="30" height="30" transform="matrix(1 0 0 -1 34 4311)" fill="black"/>
<rect width="30" height="30" transform="matrix(1 0 0 -1 64 4311)" fill="black"/>
<rect width="30" height="30" transform="matrix(1 0 0 -1 4 4341)" fill="black"/>
<rect width="30" height="30" transform="matrix(1 0 0 -1 34 4341)" fill="black"/>
<rect width="30" height="30" transform="matrix(1 0 0 -1 4 4341)" fill="black"/>
<rect width="30" height="30" transform="matrix(1 0 0 -1 34 4341)" fill="black"/>
<rect width="30" height="30" transform="matrix(1 0 0 -1 4 4371)" fill="black"/>
<rect width="30" height="30" transform="matrix(1 0 0 -1 34 4371)" fill="black"/>
<rect width="30" height="30" transform="matrix(1 0 0 -1 4 4371)" fill="black"/>
<rect width="30" height="30" transform="matrix(1 0 0 -1 34 4371)" fill="black"/>
<rect width="30" height="30" transform="matrix(1 0 0 -1 94 4311)" fill="black"/>
<rect width="30" height="30" transform="matrix(1 0 0 -1 124 4311)" fill="black"/>
<rect width="30" height="30" transform="matrix(1 0 0 -1 154 4311)" fill="black"/>
<rect width="30" height="30" transform="matrix(1 0 0 -1 184 4311)" fill="black"/>
<rect width="30" height="30" transform="matrix(1 0 0 -1 214 4311)" fill="black"/>
<rect width="30" height="30" transform="matrix(1 0 0 -1 154 4341)" fill="black"/>
<rect width="30" height="30" transform="matrix(1 0 0 -1 184 4341)" fill="black"/>
<rect width="30" height="30" transform="matrix(1 0 0 -1 244 4311)" fill="black"/>
<rect width="30" height="30" transform="matrix(1 0 0 -1 724 4281)" fill="black"/>
<rect width="30" height="30" transform="matrix(1 0 0 -1 424 4251)" fill="black"/>
<rect width="30" height="30" transform="matrix(1 0 0 -1 454 4251)" fill="black"/>
<rect width="30" height="30" transform="matrix(1 0 0 -1 484 4251)" fill="black"/>
<rect width="30" height="30" transform="matrix(1 0 0 -1 514 4251)" fill="black"/>
<rect width="30" height="30" transform="matrix(1 0 0 -1 544 4251)" fill="black"/>
<rect width="30" height="30" transform="matrix(1 0 0 -1 574 4251)" fill="black"/>
<rect width="30" height="30" transform="matrix(1 0 0 -1 604 4251)" fill="black"/>
<rect width="30" height="30" transform="matrix(1 0 0 -1 634 4251)" fill="black"/>
<rect width="30" height="30" transform="matrix(1 0 0 -1 664 4251)" fill="black"/>
<rect width="30" height="30" transform="matrix(1 0 0 -1 694 4251)" fill="black"/>
<rect width="30" height="30" transform="matrix(1 0 0 -1 454 4281)" fill="black"/>
<rect width="30" height="30" transform="matrix(1 0 0 -1 484 4281)" fill="black"/>
<rect width="30" height="30" transform="matrix(1 0 0 -1 514 4281)" fill="black"/>
<rect width="30" height="30" transform="matrix(1 0 0 -1 484 4311)" fill="black"/>
<rect width="30" height="30" transform="matrix(1 0 0 -1 544 4281)" fill="black"/>
<rect width="30" height="30" transform="matrix(1 0 0 -1 574 4281)" fill="black"/>
<rect width="30" height="30" transform="matrix(1 0 0 -1 604 4281)" fill="black"/>
<rect width="30" height="30" transform="matrix(1 0 0 -1 634 4281)" fill="black"/>
<rect width="30" height="30" transform="matrix(1 0 0 -1 664 4281)" fill="black"/>
<rect width="30" height="30" transform="matrix(1 0 0 -1 694 4281)" fill="black"/>
<rect width="30" height="30" transform="matrix(1 0 0 -1 724 4251)" fill="black"/>
<rect width="30" height="30" transform="matrix(1 0 0 -1 904 4281)" fill="black"/>
<rect width="30" height="30" transform="matrix(1 0 0 -1 754 4251)" fill="black"/>
<rect width="30" height="30" transform="matrix(1 0 0 -1 784 4251)" fill="black"/>
<rect width="30" height="30" transform="matrix(1 0 0 -1 814 4251)" fill="black"/>
<rect width="30" height="30" transform="matrix(1 0 0 -1 844 4251)" fill="black"/>
<rect width="30" height="30" transform="matrix(1 0 0 -1 874 4251)" fill="black"/>
<rect width="30" height="30" transform="matrix(1 0 0 -1 754 4281)" fill="black"/>
<rect width="30" height="30" transform="matrix(1 0 0 -1 784 4281)" fill="black"/>
<rect width="30" height="30" transform="matrix(1 0 0 -1 814 4281)" fill="black"/>
<rect width="30" height="30" transform="matrix(1 0 0 -1 844 4281)" fill="black"/>
<rect width="30" height="30" transform="matrix(1 0 0 -1 874 4281)" fill="black"/>
<rect width="30" height="30" transform="matrix(1 0 0 -1 904 4251)" fill="black"/>
<rect width="30" height="30" transform="matrix(1 0 0 -1 1084 4281)" fill="black"/>
<rect width="30" height="30" transform="matrix(1 0 0 -1 934 4251)" fill="black"/>
<rect width="30" height="30" transform="matrix(1 0 0 -1 964 4251)" fill="black"/>
<rect width="30" height="30" transform="matrix(1 0 0 -1 994 4251)" fill="black"/>
<rect width="30" height="30" transform="matrix(1 0 0 -1 1024 4251)" fill="black"/>
<rect width="30" height="30" transform="matrix(1 0 0 -1 1054 4251)" fill="black"/>
<rect width="30" height="30" transform="matrix(1 0 0 -1 934 4281)" fill="black"/>
<rect width="30" height="30" transform="matrix(1 0 0 -1 724 4311)" fill="black"/>
<rect width="30" height="30" transform="matrix(1 0 0 -1 604 4311)" fill="black"/>
<rect width="30" height="30" transform="matrix(1 0 0 -1 634 4311)" fill="black"/>
<rect width="30" height="30" transform="matrix(1 0 0 -1 664 4311)" fill="black"/>
<rect width="30" height="30" transform="matrix(1 0 0 -1 634 4341)" fill="black"/>
<rect width="30" height="30" transform="matrix(1 0 0 -1 694 4311)" fill="black"/>
<rect width="30" height="30" transform="matrix(1 0 0 -1 904 4311)" fill="black"/>
<rect width="30" height="30" transform="matrix(1 0 0 -1 754 4311)" fill="black"/>
<rect width="30" height="30" transform="matrix(1 0 0 -1 784 4311)" fill="black"/>
<rect width="30" height="30" transform="matrix(1 0 0 -1 814 4311)" fill="black"/>
<rect width="30" height="30" transform="matrix(1 0 0 -1 844 4311)" fill="black"/>
<rect width="30" height="30" transform="matrix(1 0 0 -1 874 4311)" fill="black"/>
<rect width="30" height="30" transform="matrix(1 0 0 -1 904 4341)" fill="black"/>
<rect width="30" height="30" transform="matrix(1 0 0 -1 754 4341)" fill="black"/>
<rect width="30" height="30" transform="matrix(1 0 0 -1 784 4341)" fill="black"/>
<rect width="30" height="30" transform="matrix(1 0 0 -1 814 4341)" fill="black"/>
<rect width="30" height="30" transform="matrix(1 0 0 -1 844 4341)" fill="black"/>
<rect width="30" height="30" transform="matrix(1 0 0 -1 874 4341)" fill="black"/>
<rect width="30" height="30" transform="matrix(1 0 0 -1 814 4371)" fill="black"/>
<rect width="30" height="30" transform="matrix(1 0 0 -1 844 4371)" fill="black"/>
<rect width="30" height="30" transform="matrix(1 0 0 -1 874 4371)" fill="black"/>
<rect width="30" height="30" transform="matrix(1 0 0 -1 844 4401)" fill="black"/>
<rect width="30" height="30" transform="matrix(1 0 0 -1 964 4281)" fill="black"/>
<rect width="30" height="30" transform="matrix(1 0 0 -1 994 4281)" fill="black"/>
<rect width="30" height="30" transform="matrix(1 0 0 -1 1024 4281)" fill="black"/>
<rect width="30" height="30" transform="matrix(1 0 0 -1 1054 4281)" fill="black"/>
<rect width="30" height="30" transform="matrix(1 0 0 -1 1084 4251)" fill="black"/>
<rect width="30" height="30" transform="matrix(1 0 0 -1 1264 4281)" fill="black"/>
<rect width="30" height="30" transform="matrix(1 0 0 -1 1114 4251)" fill="black"/>
<rect width="30" height="30" transform="matrix(1 0 0 -1 1144 4251)" fill="black"/>
<rect width="30" height="30" transform="matrix(1 0 0 -1 1174 4251)" fill="black"/>
<rect width="30" height="30" transform="matrix(1 0 0 -1 1204 4251)" fill="black"/>
<rect width="30" height="30" transform="matrix(1 0 0 -1 1234 4251)" fill="black"/>
<rect width="30" height="30" transform="matrix(1 0 0 -1 1114 4281)" fill="black"/>
<rect width="30" height="30" transform="matrix(1 0 0 -1 1144 4281)" fill="black"/>
<rect width="30" height="30" transform="matrix(1 0 0 -1 1174 4281)" fill="black"/>
<rect width="30" height="30" transform="matrix(1 0 0 -1 1204 4281)" fill="black"/>
<rect width="30" height="30" transform="matrix(1 0 0 -1 1234 4281)" fill="black"/>
<rect width="30" height="30" transform="matrix(1 0 0 -1 1084 4311)" fill="black"/>
<rect width="30" height="30" transform="matrix(1 0 0 -1 994 4311)" fill="black"/>
<rect width="30" height="30" transform="matrix(1 0 0 -1 1024 4311)" fill="black"/>
<rect width="30" height="30" transform="matrix(1 0 0 -1 1054 4311)" fill="black"/>
<rect width="30" height="30" transform="matrix(1 0 0 -1 1264 4311)" fill="black"/>
<rect width="30" height="30" transform="matrix(1 0 0 -1 1114 4311)" fill="black"/>
<rect width="30" height="30" transform="matrix(1 0 0 -1 1144 4311)" fill="black"/>
<rect width="30" height="30" transform="matrix(1 0 0 -1 1174 4311)" fill="black"/>
<rect width="30" height="30" transform="matrix(1 0 0 -1 1204 4311)" fill="black"/>
<rect width="30" height="30" transform="matrix(1 0 0 -1 1234 4311)" fill="black"/>
<rect width="30" height="30" transform="matrix(1 0 0 -1 1084 4341)" fill="black"/>
<rect width="30" height="30" transform="matrix(1 0 0 -1 1054 4341)" fill="black"/>
<rect width="30" height="30" transform="matrix(1 0 0 -1 1264 4341)" fill="black"/>
<rect width="30" height="30" transform="matrix(1 0 0 -1 1114 4341)" fill="black"/>
<rect width="30" height="30" transform="matrix(1 0 0 -1 1144 4341)" fill="black"/>
<rect width="30" height="30" transform="matrix(1 0 0 -1 1174 4341)" fill="black"/>
<rect width="30" height="30" transform="matrix(1 0 0 -1 1204 4341)" fill="black"/>
<rect width="30" height="30" transform="matrix(1 0 0 -1 1234 4341)" fill="black"/>
<rect width="30" height="30" transform="matrix(1 0 0 -1 1084 4371)" fill="black"/>
<rect width="30" height="30" transform="matrix(1 0 0 -1 1114 4371)" fill="black"/>
<rect width="30" height="30" transform="matrix(1 0 0 -1 1144 4371)" fill="black"/>
<rect width="30" height="30" transform="matrix(1 0 0 -1 1264 4251)" fill="black"/>
<rect width="30" height="30" transform="matrix(1 0 0 -1 364 4311)" fill="black"/>
<rect width="30" height="30" transform="matrix(1 0 0 -1 994 4431)" fill="black"/>
<rect width="30" height="30" transform="matrix(1 0 0 -1 394 4401)" fill="black"/>
<rect y="222" width="1289" height="3921" fill="black"/>
<path d="M4 4424.97L4 4142H1289V4440H1174.55V4395.93H1141.43V4425.98H1113.32V4395.93H1083.7V4365.88H1024.97V4334.82H993.35V4306.28H962.229V4365.88H932.111V4395.93H902.998V4425.98H842.764V4395.93H813.148V4365.88H752.914V4334.82H692.68V4365.88H661.559V4395.93H601.826V4334.82H571.709V4306.78H541.592V4334.82H451.742V4306.78H421.625V4273.72H392.512V4246.68H329.768V4306.78H299.65V4334.82H241.424V4367.38H211.307V4396.43H149.064V4367.38H119.449L119.449 4334.82H90.3359L90.3359 4367.38H59.7168L59.7168 4396.43H29.5996L29.5996 4424.97H4Z" fill="black"/>
<path d="M4 32V314.5H1284V17H1170V61H1137V31H1109V61H1079.5V91H1021V122H989.5V150.5H958.5V91H928.5V61H899.5V31H839.5V61H810V91H750V122H690V91H659V61H599.5V122H569.5V150H539.5V122H450V150H420V183H391V210H328.5V150H298.5V122H240.5V89.5H210.5V60.5H148.5V89.5H119V122H90V89.5H59.5V60.5H29.5V32H4Z" fill="black"/>
</svg>
