<svg width="672" height="522" viewBox="0 0 672 522" fill="none" xmlns="http://www.w3.org/2000/svg">
<path d="M45.625 71.525C40.575 71.525 36.55 69.975 33.55 66.875C30.6 63.775 29.125 59.325 29.125 53.525V50.975C29.125 48.125 29.5 45.575 30.25 43.325C31.05 41.075 32.175 39.2 33.625 37.7C35.075 36.15 36.8 34.975 38.8 34.175C40.85 33.375 43.125 32.975 45.625 32.975C50.675 32.975 54.675 34.525 57.625 37.625C60.625 40.725 62.125 45.175 62.125 50.975V53.525C62.125 56.375 61.725 58.925 60.925 61.175C60.175 63.425 59.075 65.325 57.625 66.875C56.175 68.375 54.425 69.525 52.375 70.325C50.375 71.125 48.125 71.525 45.625 71.525ZM45.625 67.025C49.075 67.025 51.825 65.9 53.875 63.65C55.975 61.4 57.025 58.025 57.025 53.525V50.975C57.025 46.525 55.975 43.175 53.875 40.925C51.775 38.625 49.025 37.475 45.625 37.475C42.175 37.475 39.4 38.6 37.3 40.85C35.25 43.1 34.225 46.475 34.225 50.975V53.525C34.225 57.975 35.275 61.35 37.375 63.65C39.475 65.9 42.225 67.025 45.625 67.025ZM113.86 33.5H118.81V49.25H125.56L136.51 33.5H142.36L129.535 51.35L143.86 71H137.86L125.56 53.75H118.81V71H113.86V33.5ZM193.343 33.5H198.293V49.625H219.143V33.5H224.093V71H219.143V54.125H198.293V71H193.343V33.5ZM292.349 71.525C287.299 71.525 283.274 69.975 280.274 66.875C277.324 63.775 275.849 59.325 275.849 53.525V50.975C275.849 48.125 276.224 45.575 276.974 43.325C277.774 41.075 278.899 39.2 280.349 37.7C281.799 36.15 283.524 34.975 285.524 34.175C287.574 33.375 289.849 32.975 292.349 32.975C297.399 32.975 301.399 34.525 304.349 37.625C307.349 40.725 308.849 45.175 308.849 50.975V53.525C308.849 56.375 308.449 58.925 307.649 61.175C306.899 63.425 305.799 65.325 304.349 66.875C302.899 68.375 301.149 69.525 299.099 70.325C297.099 71.125 294.849 71.525 292.349 71.525ZM292.349 67.025C295.799 67.025 298.549 65.9 300.599 63.65C302.699 61.4 303.749 58.025 303.749 53.525V50.975C303.749 46.525 302.699 43.175 300.599 40.925C298.499 38.625 295.749 37.475 292.349 37.475C288.899 37.475 286.124 38.6 284.024 40.85C281.974 43.1 280.949 46.475 280.949 50.975V53.525C280.949 57.975 281.999 61.35 284.099 63.65C286.199 65.9 288.949 67.025 292.349 67.025Z" fill="black"/>
<path d="M47.075 238.525C41.975 238.525 37.925 236.9 34.925 233.65C31.975 230.35 30.5 225.225 30.5 218.275V214.225C30.5 211.375 30.625 208.675 30.875 206.125C31.125 203.575 31.55 201.25 32.15 199.15C32.8 197.05 33.675 195.2 34.775 193.6C35.875 191.95 37.3 190.6 39.05 189.55C40.6 188.65 42.125 188.05 43.625 187.75C45.175 187.4 46.8 187.15 48.5 187C50.2 186.85 52.025 186.675 53.975 186.475C55.925 186.225 58.1 185.725 60.5 184.975V189.55C58.6 190.25 56.75 190.7 54.95 190.9C53.2 191.1 51.5 191.275 49.85 191.425C48.25 191.575 46.725 191.775 45.275 192.025C43.825 192.275 42.5 192.775 41.3 193.525C39.45 194.725 38.05 196.425 37.1 198.625C36.2 200.825 35.6 203.7 35.3 207.25H35.45C36.75 205.15 38.45 203.55 40.55 202.45C42.7 201.3 45.175 200.725 47.975 200.725C50.225 200.725 52.3 201.125 54.2 201.925C56.1 202.725 57.725 203.875 59.075 205.375C60.475 206.875 61.55 208.725 62.3 210.925C63.1 213.125 63.5 215.6 63.5 218.35V220.9C63.5 223.65 63.1 226.125 62.3 228.325C61.5 230.475 60.375 232.325 58.925 233.875C57.525 235.375 55.8 236.525 53.75 237.325C51.75 238.125 49.525 238.525 47.075 238.525ZM47.075 234.025C50.475 234.025 53.2 232.925 55.25 230.725C57.35 228.475 58.4 225.2 58.4 220.9V218.35C58.4 214.05 57.35 210.8 55.25 208.6C53.2 206.35 50.475 205.225 47.075 205.225C43.575 205.225 40.775 206.325 38.675 208.525C36.625 210.725 35.6 214 35.6 218.35V220.9C35.6 225.15 36.65 228.4 38.75 230.65C40.85 232.9 43.625 234.025 47.075 234.025ZM115.602 200.5H119.502L120.102 206.125H120.252C121.902 203.975 123.727 202.425 125.727 201.475C127.727 200.475 130.077 199.975 132.777 199.975C134.977 199.975 137.002 200.375 138.852 201.175C140.702 201.925 142.277 203.075 143.577 204.625C144.927 206.125 145.977 208 146.727 210.25C147.477 212.5 147.852 215.075 147.852 217.975V220.525C147.852 223.425 147.477 226 146.727 228.25C145.977 230.45 144.927 232.325 143.577 233.875C142.227 235.375 140.627 236.525 138.777 237.325C136.927 238.125 134.927 238.525 132.777 238.525C127.377 238.525 123.352 236.6 120.702 232.75H120.552V253H115.602V200.5ZM131.652 234.025C134.952 234.025 137.627 232.925 139.677 230.725C141.727 228.475 142.752 225.075 142.752 220.525V217.975C142.752 213.525 141.702 210.175 139.602 207.925C137.552 205.625 134.902 204.475 131.652 204.475C128.352 204.475 125.677 205.6 123.627 207.85C121.577 210.05 120.552 213.425 120.552 217.975V220.525C120.552 224.975 121.577 228.35 123.627 230.65C125.727 232.9 128.402 234.025 131.652 234.025ZM214.25 238.525C209.2 238.525 205.175 236.975 202.175 233.875C199.225 230.775 197.75 226.325 197.75 220.525V217.975C197.75 215.125 198.125 212.575 198.875 210.325C199.675 208.075 200.8 206.2 202.25 204.7C203.7 203.15 205.425 201.975 207.425 201.175C209.475 200.375 211.75 199.975 214.25 199.975C219.3 199.975 223.3 201.525 226.25 204.625C229.25 207.725 230.75 212.175 230.75 217.975V220.525C230.75 223.375 230.35 225.925 229.55 228.175C228.8 230.425 227.7 232.325 226.25 233.875C224.8 235.375 223.05 236.525 221 237.325C219 238.125 216.75 238.525 214.25 238.525ZM214.25 234.025C217.7 234.025 220.45 232.9 222.5 230.65C224.6 228.4 225.65 225.025 225.65 220.525V217.975C225.65 213.525 224.6 210.175 222.5 207.925C220.4 205.625 217.65 204.475 214.25 204.475C210.8 204.475 208.025 205.6 205.925 207.85C203.875 210.1 202.85 213.475 202.85 217.975V220.525C202.85 224.975 203.9 228.35 206 230.65C208.1 232.9 210.85 234.025 214.25 234.025ZM282.86 200.5H287.81V216.625H308.66V200.5H313.61V238H308.66V221.125H287.81V238H282.86V200.5ZM377.441 218.5L364.541 200.5H370.241L380.441 214.825L390.641 200.5H396.191L383.291 218.425L397.241 238H391.391L380.291 222.325L369.191 238H363.491L377.441 218.5ZM447.116 200.5H452.066V232.375H452.216L470.966 200.5H477.866V238H472.916V206.125H472.766L454.016 238H447.116V200.5ZM539.897 205H527.372V200.5H557.372V205H544.847V238H539.897V205Z" fill="black"/>
<path d="M129.625 157.525C124.575 157.525 120.55 155.975 117.55 152.875C114.6 149.775 113.125 145.325 113.125 139.525V136.975C113.125 134.125 113.5 131.575 114.25 129.325C115.05 127.075 116.175 125.2 117.625 123.7C119.075 122.15 120.8 120.975 122.8 120.175C124.85 119.375 127.125 118.975 129.625 118.975C134.675 118.975 138.675 120.525 141.625 123.625C144.625 126.725 146.125 131.175 146.125 136.975V139.525C146.125 142.375 145.725 144.925 144.925 147.175C144.175 149.425 143.075 151.325 141.625 152.875C140.175 154.375 138.425 155.525 136.375 156.325C134.375 157.125 132.125 157.525 129.625 157.525ZM129.625 153.025C133.075 153.025 135.825 151.9 137.875 149.65C139.975 147.4 141.025 144.025 141.025 139.525V136.975C141.025 132.525 139.975 129.175 137.875 126.925C135.775 124.625 133.025 123.475 129.625 123.475C126.175 123.475 123.4 124.6 121.3 126.85C119.25 129.1 118.225 132.475 118.225 136.975V139.525C118.225 143.975 119.275 147.35 121.375 149.65C123.475 151.9 126.225 153.025 129.625 153.025Z" fill="black"/>
<path d="M438.375 364.5H443.325V380.625H451.725C451.825 378.025 452.275 375.7 453.075 373.65C453.875 371.55 454.975 369.8 456.375 368.4C457.775 366.95 459.425 365.85 461.325 365.1C463.225 364.35 465.3 363.975 467.55 363.975C469.9 363.975 472.05 364.375 474 365.175C475.95 365.975 477.6 367.15 478.95 368.7C480.35 370.2 481.425 372.075 482.175 374.325C482.975 376.525 483.375 379.075 483.375 381.975V384.525C483.375 387.375 482.975 389.925 482.175 392.175C481.425 394.425 480.35 396.325 478.95 397.875C477.55 399.375 475.875 400.525 473.925 401.325C471.975 402.125 469.85 402.525 467.55 402.525C465.2 402.525 463.05 402.15 461.1 401.4C459.2 400.6 457.55 399.475 456.15 398.025C454.8 396.525 453.725 394.7 452.925 392.55C452.125 390.4 451.725 387.925 451.725 385.125H443.325V402H438.375V364.5ZM467.55 398.025C470.65 398.025 473.2 396.9 475.2 394.65C477.25 392.4 478.275 389.025 478.275 384.525V381.975C478.275 379.725 478 377.775 477.45 376.125C476.9 374.425 476.15 373.025 475.2 371.925C474.25 370.775 473.125 369.925 471.825 369.375C470.525 368.775 469.1 368.475 467.55 368.475C464.4 368.475 461.825 369.575 459.825 371.775C457.825 373.975 456.825 377.25 456.825 381.6V384.15C456.825 388.8 457.825 392.275 459.825 394.575C461.875 396.875 464.45 398.025 467.55 398.025Z" fill="black"/>
<path d="M447.375 454.5H471.375V459H452.325V492H447.375V454.5Z" fill="black"/>
<path d="M110.375 286.5H117.575L129.575 309.6H129.725L141.725 286.5H148.625V324H143.675V292.875H143.525L131.975 315H127.025L115.475 292.875H115.325V324H110.375V286.5Z" fill="black"/>
<rect x="4" y="14" width="495" height="80" stroke="black" stroke-width="8"/>
<rect x="89" y="97" width="493" height="80" stroke="black" stroke-width="8"/>
<rect x="4" y="179" width="578" height="80" stroke="black" stroke-width="8"/>
<rect x="89" y="343" width="579" height="80" stroke="black" stroke-width="8"/>
<rect x="89" y="518" width="504" height="81" transform="rotate(-90 89 518)" stroke="black" stroke-width="8"/>
<rect x="171" y="341" width="327" height="81" transform="rotate(-90 171 341)" stroke="black" stroke-width="8"/>
<rect x="253" y="423" width="409" height="80" transform="rotate(-90 253 423)" stroke="black" stroke-width="8"/>
<rect x="336" y="177" width="163" height="80" transform="rotate(-90 336 177)" stroke="black" stroke-width="8"/>
<rect x="419" y="518" width="504" height="80" transform="rotate(-90 419 518)" stroke="black" stroke-width="8"/>
<rect x="174" y="98" width="75" height="77" fill="black"/>
<rect x="337" y="16" width="78" height="77" fill="black"/>
<rect x="420" y="263" width="77" height="76" fill="black"/>
<rect x="89" y="345" width="77" height="76" fill="black"/>
<rect x="588" y="343" width="80" height="80" fill="black" stroke="black" stroke-width="8"/>
<rect x="249" y="427" width="88" height="79" fill="black"/>
</svg>
