<svg width="1280" height="442" viewBox="0 0 1280 442" fill="none" xmlns="http://www.w3.org/2000/svg">
<path d="M1280 10.5919V442L-5 442V0L109.445 0V31.0697L142.574 31.0697V9.88581L170.684 9.88581V31.0697L200.299 31.0697V52.2535L259.027 52.2535V74.1435L290.65 74.1435V94.2682H321.771V52.2535L351.889 52.2535V31.0697L381.002 31.0697V9.88581L441.236 9.88581V31.0697L470.852 31.0697V52.2535L531.086 52.2535V74.1435H591.32V52.2535L622.441 52.2535V31.0697L682.174 31.0697V74.1435H712.291V93.9152H742.408V74.1435L832.258 74.1435V93.9152H862.375V117.217H891.488V136.283H954.232V93.9152H984.35V74.1435L1042.58 74.1435V51.1944L1072.69 51.1944V30.7166L1134.94 30.7166V51.1944L1164.55 51.1944V74.1435L1193.66 74.1435V51.1944H1224.28V30.7166H1254.4V10.5919L1280 10.5919Z" fill="black"/>
<rect x="269" y="7" width="34" height="34" fill="black"/>
<rect x="913" y="41" width="34" height="34" fill="black"/>
</svg>
