<svg width="146" height="146" viewBox="0 0 146 146" fill="none" xmlns="http://www.w3.org/2000/svg">
<rect width="146" height="146" fill="#F2F2F2"/>
<ellipse cx="8.78194" cy="7.80176" rx="4.39098" ry="4.45801" fill="#D9D9D9"/>
<ellipse cx="8.78194" cy="22.29" rx="4.39098" ry="4.45801" fill="#D9D9D9"/>
<ellipse cx="8.78194" cy="36.7793" rx="4.39098" ry="4.45801" fill="#D9D9D9"/>
<ellipse cx="8.78194" cy="51.2666" rx="4.39098" ry="4.45801" fill="#D9D9D9"/>
<ellipse cx="8.78194" cy="65.7559" rx="4.39098" ry="4.45801" fill="#D9D9D9"/>
<ellipse cx="8.78194" cy="80.2441" rx="4.39098" ry="4.45801" fill="#D9D9D9"/>
<ellipse cx="8.78194" cy="94.7334" rx="4.39098" ry="4.45801" fill="#D9D9D9"/>
<ellipse cx="8.78194" cy="109.222" rx="4.39098" ry="4.45801" fill="#D9D9D9"/>
<ellipse cx="8.78194" cy="123.71" rx="4.39098" ry="4.45801" fill="#D9D9D9"/>
<ellipse cx="8.78194" cy="138.198" rx="4.39098" ry="4.45801" fill="#D9D9D9"/>
<ellipse cx="23.0526" cy="7.80176" rx="4.39098" ry="4.45801" fill="#D9D9D9"/>
<ellipse cx="23.0526" cy="22.29" rx="4.39098" ry="4.45801" fill="#D9D9D9"/>
<ellipse cx="23.0526" cy="36.7793" rx="4.39098" ry="4.45801" fill="#D9D9D9"/>
<ellipse cx="23.0526" cy="51.2666" rx="4.39098" ry="4.45801" fill="#D9D9D9"/>
<ellipse cx="23.0526" cy="65.7559" rx="4.39098" ry="4.45801" fill="#D9D9D9"/>
<ellipse cx="23.0526" cy="80.2441" rx="4.39098" ry="4.45801" fill="#D9D9D9"/>
<ellipse cx="23.0526" cy="94.7334" rx="4.39098" ry="4.45801" fill="#D9D9D9"/>
<ellipse cx="23.0526" cy="109.222" rx="4.39098" ry="4.45801" fill="#D9D9D9"/>
<ellipse cx="23.0526" cy="123.71" rx="4.39098" ry="4.45801" fill="#D9D9D9"/>
<ellipse cx="23.0526" cy="138.198" rx="4.39098" ry="4.45801" fill="#D9D9D9"/>
<ellipse cx="37.3233" cy="7.80176" rx="4.39098" ry="4.45801" fill="#D9D9D9"/>
<ellipse cx="37.3233" cy="22.29" rx="4.39098" ry="4.45801" fill="#D9D9D9"/>
<ellipse cx="37.3233" cy="36.7793" rx="4.39098" ry="4.45801" fill="#D9D9D9"/>
<ellipse cx="37.3233" cy="51.2666" rx="4.39098" ry="4.45801" fill="#D9D9D9"/>
<ellipse cx="37.3233" cy="65.7559" rx="4.39098" ry="4.45801" fill="#D9D9D9"/>
<ellipse cx="37.3233" cy="80.2441" rx="4.39098" ry="4.45801" fill="#D9D9D9"/>
<ellipse cx="37.3233" cy="94.7334" rx="4.39098" ry="4.45801" fill="#D9D9D9"/>
<ellipse cx="37.3233" cy="109.222" rx="4.39098" ry="4.45801" fill="#D9D9D9"/>
<ellipse cx="37.3233" cy="123.71" rx="4.39098" ry="4.45801" fill="#D9D9D9"/>
<ellipse cx="37.3233" cy="138.198" rx="4.39098" ry="4.45801" fill="#D9D9D9"/>
<ellipse cx="51.594" cy="7.80176" rx="4.39098" ry="4.45801" fill="#D9D9D9"/>
<ellipse cx="51.594" cy="22.29" rx="4.39098" ry="4.45801" fill="#D9D9D9"/>
<ellipse cx="51.594" cy="36.7793" rx="4.39098" ry="4.45801" fill="#D9D9D9"/>
<ellipse cx="51.594" cy="51.2666" rx="4.39098" ry="4.45801" fill="#D9D9D9"/>
<ellipse cx="51.594" cy="65.7559" rx="4.39098" ry="4.45801" fill="#D9D9D9"/>
<ellipse cx="51.594" cy="80.2441" rx="4.39098" ry="4.45801" fill="#D9D9D9"/>
<ellipse cx="51.594" cy="94.7334" rx="4.39098" ry="4.45801" fill="#D9D9D9"/>
<ellipse cx="51.594" cy="109.222" rx="4.39098" ry="4.45801" fill="#D9D9D9"/>
<ellipse cx="51.594" cy="123.71" rx="4.39098" ry="4.45801" fill="#D9D9D9"/>
<ellipse cx="51.594" cy="138.198" rx="4.39098" ry="4.45801" fill="#D9D9D9"/>
<ellipse cx="65.8647" cy="7.80176" rx="4.39098" ry="4.45801" fill="#D9D9D9"/>
<ellipse cx="65.8647" cy="22.29" rx="4.39098" ry="4.45801" fill="#D9D9D9"/>
<ellipse cx="65.8647" cy="36.7793" rx="4.39098" ry="4.45801" fill="#D9D9D9"/>
<ellipse cx="65.8647" cy="51.2666" rx="4.39098" ry="4.45801" fill="#D9D9D9"/>
<ellipse cx="65.8647" cy="65.7559" rx="4.39098" ry="4.45801" fill="#D9D9D9"/>
<ellipse cx="65.8647" cy="80.2441" rx="4.39098" ry="4.45801" fill="#D9D9D9"/>
<ellipse cx="65.8647" cy="94.7334" rx="4.39098" ry="4.45801" fill="#D9D9D9"/>
<ellipse cx="65.8647" cy="109.222" rx="4.39098" ry="4.45801" fill="#D9D9D9"/>
<ellipse cx="65.8647" cy="123.71" rx="4.39098" ry="4.45801" fill="#D9D9D9"/>
<ellipse cx="65.8647" cy="138.198" rx="4.39098" ry="4.45801" fill="#D9D9D9"/>
<ellipse cx="80.1353" cy="7.80176" rx="4.39098" ry="4.45801" fill="#D9D9D9"/>
<ellipse cx="80.1353" cy="22.29" rx="4.39098" ry="4.45801" fill="#D9D9D9"/>
<ellipse cx="80.1353" cy="36.7793" rx="4.39098" ry="4.45801" fill="#D9D9D9"/>
<ellipse cx="80.1353" cy="51.2666" rx="4.39098" ry="4.45801" fill="#D9D9D9"/>
<ellipse cx="80.1353" cy="65.7559" rx="4.39098" ry="4.45801" fill="#D9D9D9"/>
<ellipse cx="80.1353" cy="80.2441" rx="4.39098" ry="4.45801" fill="#D9D9D9"/>
<ellipse cx="80.1353" cy="94.7334" rx="4.39098" ry="4.45801" fill="#D9D9D9"/>
<ellipse cx="80.1353" cy="109.222" rx="4.39098" ry="4.45801" fill="#D9D9D9"/>
<ellipse cx="80.1353" cy="123.71" rx="4.39098" ry="4.45801" fill="#D9D9D9"/>
<ellipse cx="80.1353" cy="138.198" rx="4.39098" ry="4.45801" fill="#D9D9D9"/>
<ellipse cx="94.406" cy="7.80176" rx="4.39098" ry="4.45801" fill="#D9D9D9"/>
<ellipse cx="94.406" cy="22.29" rx="4.39098" ry="4.45801" fill="#D9D9D9"/>
<ellipse cx="94.406" cy="36.7793" rx="4.39098" ry="4.45801" fill="#D9D9D9"/>
<ellipse cx="94.406" cy="51.2666" rx="4.39098" ry="4.45801" fill="#D9D9D9"/>
<ellipse cx="94.406" cy="65.7559" rx="4.39098" ry="4.45801" fill="#D9D9D9"/>
<ellipse cx="94.406" cy="80.2441" rx="4.39098" ry="4.45801" fill="#D9D9D9"/>
<ellipse cx="94.406" cy="94.7334" rx="4.39098" ry="4.45801" fill="#D9D9D9"/>
<ellipse cx="94.406" cy="109.222" rx="4.39098" ry="4.45801" fill="#D9D9D9"/>
<ellipse cx="94.406" cy="123.71" rx="4.39098" ry="4.45801" fill="#D9D9D9"/>
<ellipse cx="94.406" cy="138.198" rx="4.39098" ry="4.45801" fill="#D9D9D9"/>
<ellipse cx="108.677" cy="7.80176" rx="4.39098" ry="4.45801" fill="#D9D9D9"/>
<ellipse cx="108.677" cy="22.29" rx="4.39098" ry="4.45801" fill="#D9D9D9"/>
<ellipse cx="108.677" cy="36.7793" rx="4.39098" ry="4.45801" fill="#D9D9D9"/>
<ellipse cx="108.677" cy="51.2666" rx="4.39098" ry="4.45801" fill="#D9D9D9"/>
<ellipse cx="108.677" cy="65.7559" rx="4.39098" ry="4.45801" fill="#D9D9D9"/>
<ellipse cx="108.677" cy="80.2441" rx="4.39098" ry="4.45801" fill="#D9D9D9"/>
<ellipse cx="108.677" cy="94.7334" rx="4.39098" ry="4.45801" fill="#D9D9D9"/>
<ellipse cx="108.677" cy="109.222" rx="4.39098" ry="4.45801" fill="#D9D9D9"/>
<ellipse cx="108.677" cy="123.71" rx="4.39098" ry="4.45801" fill="#D9D9D9"/>
<ellipse cx="108.677" cy="138.198" rx="4.39098" ry="4.45801" fill="#D9D9D9"/>
<ellipse cx="122.947" cy="7.80176" rx="4.39098" ry="4.45801" fill="#D9D9D9"/>
<ellipse cx="122.947" cy="22.29" rx="4.39098" ry="4.45801" fill="#D9D9D9"/>
<ellipse cx="122.947" cy="36.7793" rx="4.39098" ry="4.45801" fill="#D9D9D9"/>
<ellipse cx="122.947" cy="51.2666" rx="4.39098" ry="4.45801" fill="#D9D9D9"/>
<ellipse cx="122.947" cy="65.7559" rx="4.39098" ry="4.45801" fill="#D9D9D9"/>
<ellipse cx="122.947" cy="80.2441" rx="4.39098" ry="4.45801" fill="#D9D9D9"/>
<ellipse cx="122.947" cy="94.7334" rx="4.39098" ry="4.45801" fill="#D9D9D9"/>
<ellipse cx="122.947" cy="109.222" rx="4.39098" ry="4.45801" fill="#D9D9D9"/>
<ellipse cx="122.947" cy="123.71" rx="4.39098" ry="4.45801" fill="#D9D9D9"/>
<ellipse cx="122.947" cy="138.198" rx="4.39098" ry="4.45801" fill="#D9D9D9"/>
<ellipse cx="137.218" cy="7.80176" rx="4.39098" ry="4.45801" fill="#D9D9D9"/>
<ellipse cx="137.218" cy="22.29" rx="4.39098" ry="4.45801" fill="#D9D9D9"/>
<ellipse cx="137.218" cy="36.7793" rx="4.39098" ry="4.45801" fill="#D9D9D9"/>
<ellipse cx="137.218" cy="51.2666" rx="4.39098" ry="4.45801" fill="#D9D9D9"/>
<ellipse cx="137.218" cy="65.7559" rx="4.39098" ry="4.45801" fill="#D9D9D9"/>
<ellipse cx="137.218" cy="80.2441" rx="4.39098" ry="4.45801" fill="#D9D9D9"/>
<ellipse cx="137.218" cy="94.7334" rx="4.39098" ry="4.45801" fill="#D9D9D9"/>
<ellipse cx="137.218" cy="109.222" rx="4.39098" ry="4.45801" fill="#D9D9D9"/>
<ellipse cx="137.218" cy="123.71" rx="4.39098" ry="4.45801" fill="#D9D9D9"/>
<ellipse cx="137.218" cy="138.198" rx="4.39098" ry="4.45801" fill="#D9D9D9"/>
</svg>
