<svg width="216" height="217" viewBox="0 0 216 217" fill="none" xmlns="http://www.w3.org/2000/svg">
<rect width="216" height="217" fill="white"/>
<rect x="11" y="10" width="195" height="197" rx="20" fill="black"/>
<path d="M47.1926 181.989L63.7003 178.733L112.022 121.518L124.569 132.115L125.825 113.828C152.666 125.318 207.545 87.8284 162.871 44.5101C106.799 1.45307 81.2687 71.8984 98.2212 90.5151L80.4028 94.8137L96.2124 108.166L89.0065 116.698L76.9716 117.712L77.35 130.5L66.3747 130.259L59.8047 138.039L61.6667 149.07L55.6492 149.577L47.1717 159.615L47.1926 181.989ZM47.1926 181.989L103.992 114.736L105.687 112.728M155.297 51.4416C152.537 49.1103 148.923 49.9276 146.581 53.1085C144.043 56.5545 146.964 61.5089 150.852 62.305C154.884 63.1307 161.069 56.3161 155.297 51.4416Z" stroke="white" stroke-width="4"/>
</svg>
