<svg width="586" height="788" viewBox="0 0 586 788" fill="none" xmlns="http://www.w3.org/2000/svg">
<rect x="40.7975" y="362.533" width="406.128" height="449.34" rx="4" transform="rotate(-20.9693 40.7975 362.533)" fill="#777777" stroke="black" stroke-width="8" stroke-linejoin="round"/>
<circle cx="238.287" cy="328.853" r="22.0391" transform="rotate(-12.711 238.287 328.853)" fill="white" stroke="black" stroke-width="8"/>
<path fill-rule="evenodd" clip-rule="evenodd" d="M215.578 325.736C236.81 319.989 249.924 298.465 245.038 276.804C240.021 254.56 217.921 240.595 195.677 245.612C173.433 250.63 159.468 272.73 164.486 294.974C166.039 301.859 169.228 307.95 173.552 312.932L165.793 316.087C161.5 310.555 158.324 304.016 156.682 296.734C150.692 270.18 167.363 243.798 193.917 237.808C220.471 231.819 246.853 248.49 252.842 275.044C258.832 301.598 242.161 327.98 215.607 333.969C215.094 334.085 214.58 334.192 214.067 334.291L215.578 325.736Z" fill="black"/>
<path d="M-120.458 151.019C-98.3247 164.617 -34.047 187.965 45.9946 172.58C126.036 157.195 164.174 218.218 173.238 250.652L186.013 239.667C187.322 212.361 189.865 140.621 162.891 137.156C21.5146 118.996 -66.778 93.1511 -119.589 59.7799" stroke="black" stroke-width="8"/>
<rect x="103.239" y="440.183" width="149.893" height="149.893" transform="rotate(-21 103.239 440.183)" fill="white" stroke="black" stroke-width="8"/>
<path d="M157.042 459.42L166.9 455.635L213.836 509.599L204.695 513.108L192.174 498.171L166.273 508.113L166.874 527.626L158.27 530.929L157.042 459.42ZM186.527 491.495L165.239 466.042L165.06 466.11L166.003 499.374L186.527 491.495ZM234.739 502.398C229.661 504.347 225.378 504.62 221.891 503.216C218.464 501.79 215.96 499.015 214.377 494.892C212.657 490.411 212.797 486.313 214.799 482.597C216.837 478.798 221.261 475.591 228.073 472.977L238.38 469.02L237.451 466.6C236.327 463.673 234.724 461.82 232.643 461.042C230.599 460.181 227.815 460.428 224.289 461.781C221.063 463.019 218.921 464.493 217.863 466.202C216.782 467.85 216.454 469.587 216.881 471.412L208.635 474.577C208.044 472.679 207.827 470.774 207.984 468.863C208.201 466.928 208.828 465.077 209.863 463.308C210.898 461.54 212.364 459.914 214.263 458.432C216.199 456.866 218.6 455.533 221.468 454.432C227.622 452.069 232.661 451.712 236.584 453.36C240.567 454.984 243.602 458.515 245.689 463.952L256.87 493.08L250.596 495.488L247.03 489.145L246.851 489.214C245.11 495.572 241.073 499.967 234.739 502.398ZM232.814 494.705C234.667 493.994 236.285 493.03 237.668 491.813C239.089 490.514 240.191 489.097 240.973 487.563C241.792 485.946 242.255 484.294 242.361 482.608C242.505 480.839 242.256 479.118 241.613 477.445L240.994 475.832L231.136 479.616C226.953 481.222 224.301 483.062 223.178 485.139C222.033 487.155 221.896 489.298 222.767 491.569C223.455 493.361 224.645 494.584 226.335 495.238C228.085 495.869 230.245 495.691 232.814 494.705Z" fill="black"/>
</svg>
