<svg width="580" height="463" viewBox="0 0 580 463" fill="none" xmlns="http://www.w3.org/2000/svg">
<path d="M183.641 331.497L172.189 345.906L156.32 327.273L156.273 312.901L160.929 308.215L151.562 300.34L151.526 289.202L160.844 281.626L151.468 271.236L160.78 261.864L160.741 249.648L138.104 249.721L149.909 233.514C122.59 230.008 93.9572 153.208 171.197 149.366C239.121 153.818 219.944 223.946 189.433 233.386L201.342 249.517L183.377 249.575L183.641 331.497Z" fill="#777777"/>
<path d="M172.189 345.906L183.641 331.497L183.377 249.575L201.342 249.517L189.433 233.386C219.944 223.946 239.121 153.818 171.197 149.366C93.9572 153.208 122.59 230.008 149.909 233.514L138.104 249.721L160.741 249.648L160.78 261.864L151.468 271.236L160.844 281.626L151.526 289.202L151.562 300.34L160.929 308.215L156.273 312.901L156.32 327.273L172.189 345.906ZM172.189 345.906L171.879 249.612L171.87 246.737M169.795 160.509C165.843 160.522 163.41 163.764 163.711 168.074C164.038 172.744 169.982 174.804 173.787 172.713C177.733 170.544 178.059 160.483 169.795 160.509Z" stroke="white" stroke-width="4"/>
<rect x="198.547" y="99.537" width="164.876" height="64.2688" rx="32.1344" transform="rotate(-0.184622 198.547 99.537)" fill="#777777" stroke="white" stroke-width="4"/>
<rect x="230.92" y="110.212" width="100.918" height="42.7103" transform="rotate(-0.184622 230.92 110.212)" stroke="white" stroke-width="4"/>
<circle cx="214.976" cy="131.619" r="7.70136" transform="rotate(-0.184622 214.976 131.619)" stroke="white" stroke-width="4"/>
<path d="M253.307 133.725L262.563 119.985L266.223 119.973L266.267 133.683L268.907 133.674L268.915 136.254L266.275 136.263L266.29 140.973L263.47 140.982L263.455 136.272L253.315 136.305L253.307 133.725ZM263.447 133.692L263.413 123.132L256.397 133.715L263.447 133.692ZM278.844 141.172C277.764 141.176 276.773 141.009 275.872 140.672C274.991 140.335 274.229 139.807 273.587 139.089C272.965 138.371 272.482 137.453 272.138 136.334C271.795 135.195 271.62 133.826 271.615 132.226L271.609 130.486C271.603 128.526 271.768 126.865 272.103 125.504C272.459 124.123 272.955 123.011 273.593 122.169C274.25 121.307 275.028 120.684 275.927 120.302C276.825 119.899 277.825 119.695 278.925 119.692C279.765 119.689 280.525 119.817 281.206 120.075C281.887 120.312 282.488 120.65 283.009 121.089C283.531 121.507 283.962 122.016 284.304 122.615C284.646 123.214 284.908 123.863 285.09 124.562L282.12 124.572C281.898 123.972 281.537 123.464 281.035 123.045C280.534 122.607 279.833 122.389 278.933 122.392C278.293 122.394 277.704 122.506 277.164 122.728C276.625 122.929 276.156 123.291 275.758 123.812C275.38 124.313 275.072 124.984 274.834 125.825C274.617 126.666 274.48 127.716 274.425 128.976C274.962 128.315 275.611 127.803 276.37 127.44C277.148 127.078 278.008 126.895 278.948 126.892C281.068 126.885 282.72 127.48 283.904 128.676C285.107 129.872 285.713 131.56 285.72 133.74L285.722 134.28C285.725 135.32 285.548 136.271 285.191 137.132C284.854 137.973 284.376 138.694 283.758 139.296C283.14 139.898 282.411 140.361 281.572 140.684C280.733 141.006 279.824 141.169 278.844 141.172ZM274.561 134.166C274.566 135.586 274.969 136.665 275.772 137.402C276.574 138.12 277.595 138.476 278.835 138.472C280.055 138.468 281.014 138.095 281.712 137.353C282.429 136.611 282.786 135.59 282.782 134.29L282.78 133.75C282.776 132.43 282.412 131.411 281.69 130.693C280.968 129.955 279.997 129.589 278.777 129.592C277.457 129.597 276.418 129.96 275.66 130.683C274.922 131.405 274.556 132.386 274.56 133.626L274.561 134.166ZM296.686 141.115C295.606 141.118 294.615 140.951 293.714 140.614C292.833 140.277 292.071 139.75 291.429 139.032C290.807 138.314 290.324 137.395 289.98 136.276C289.636 135.138 289.462 133.768 289.457 132.168L289.451 130.428C289.445 128.468 289.609 126.808 289.945 125.446C290.301 124.065 290.797 122.954 291.434 122.112C292.092 121.25 292.87 120.627 293.768 120.244C294.667 119.841 295.666 119.638 296.766 119.634C297.606 119.632 298.367 119.759 299.048 120.017C299.728 120.255 300.329 120.593 300.851 121.031C301.372 121.45 301.804 121.958 302.146 122.557C302.488 123.156 302.75 123.805 302.932 124.505L299.962 124.514C299.74 123.915 299.379 123.406 298.877 122.988C298.376 122.549 297.675 122.332 296.775 122.334C296.135 122.336 295.545 122.448 295.006 122.67C294.467 122.872 293.998 123.233 293.6 123.755C293.221 124.256 292.913 124.927 292.676 125.768C292.459 126.608 292.322 127.659 292.266 128.919C292.804 128.257 293.452 127.745 294.211 127.383C294.99 127.02 295.85 126.837 296.79 126.834C298.91 126.828 300.561 127.422 301.745 128.618C302.949 129.815 303.555 131.503 303.562 133.683L303.563 134.223C303.567 135.263 303.39 136.213 303.033 137.074C302.695 137.915 302.218 138.637 301.6 139.239C300.981 139.841 300.253 140.303 299.414 140.626C298.575 140.949 297.666 141.112 296.686 141.115ZM292.403 134.109C292.408 135.529 292.811 136.607 293.613 137.345C294.416 138.062 295.437 138.419 296.677 138.415C297.897 138.411 298.856 138.038 299.553 137.296C300.271 136.553 300.628 135.532 300.623 134.232L300.622 133.692C300.617 132.372 300.254 131.353 299.532 130.636C298.809 129.898 297.838 129.531 296.618 129.535C295.298 129.539 294.259 129.903 293.502 130.625C292.764 131.347 292.397 132.329 292.401 133.569L292.403 134.109Z" fill="white"/>
<path fill-rule="evenodd" clip-rule="evenodd" d="M208.423 145.221C206.868 151.713 202.606 157.155 196.893 160.284L205.585 160.256L205.597 164.014C208.582 161.559 211.106 158.565 213.019 155.181L208.456 155.195L208.423 145.221ZM208.832 136.43C207.214 125.052 197.415 116.32 185.597 116.358C172.677 116.4 162.237 126.907 162.278 139.827C162.307 148.708 167.281 156.417 174.584 160.356L174.552 160.356L174.58 169.13C162.751 164.661 154.322 153.251 154.278 139.853C154.223 122.515 168.233 108.414 185.571 108.358C201.813 108.306 215.214 120.597 216.889 136.404L208.832 136.43Z" fill="white"/>
<rect x="4" y="4" width="572" height="455" stroke="white" stroke-width="8"/>
<rect x="22" y="21" width="537" height="421" stroke="white" stroke-width="4"/>
<g filter="url(#filter0_d_79_4)">
<path d="M67.5 424.5H39V394" stroke="white" stroke-width="4"/>
</g>
<path d="M39 65.5V37H69.5" stroke="white" stroke-width="4"/>
<path d="M514 37H542.5V67.5" stroke="white" stroke-width="4"/>
<path d="M542.5 396V424.5H512" stroke="white" stroke-width="4"/>
<path d="M242 272H245.6V279.96H248.4L253.84 272H258L251.24 281.48L258.8 292H254.48L248.4 283.24H245.6V292H242V272ZM260.381 289.04H260.981C261.755 289.04 262.355 288.787 262.781 288.28C263.235 287.773 263.555 287.053 263.741 286.12C263.955 285.16 264.075 284.013 264.101 282.68C264.155 281.347 264.181 279.853 264.181 278.2V272H278.581V292H274.981V275.28H267.781V278.2C267.781 280.04 267.741 281.813 267.661 283.52C267.581 285.227 267.328 286.733 266.901 288.04C266.475 289.347 265.795 290.387 264.861 291.16C263.955 291.933 262.661 292.32 260.981 292.32H260.381V289.04ZM284.578 272H288.178V280.16H291.818C292.031 277.44 292.911 275.347 294.458 273.88C296.031 272.413 298.071 271.68 300.578 271.68C303.271 271.68 305.405 272.52 306.978 274.2C308.578 275.853 309.378 278.267 309.378 281.44V282.56C309.378 285.707 308.578 288.12 306.978 289.8C305.378 291.48 303.245 292.32 300.578 292.32C297.991 292.32 295.911 291.56 294.338 290.04C292.765 288.52 291.911 286.32 291.778 283.44H288.178V292H284.578V272ZM300.578 289.04C302.125 289.04 303.351 288.533 304.258 287.52C305.165 286.48 305.618 284.827 305.618 282.56V281.44C305.618 279.173 305.151 277.533 304.218 276.52C303.311 275.48 302.098 274.96 300.578 274.96C299.005 274.96 297.765 275.467 296.858 276.48C295.951 277.493 295.498 279.08 295.498 281.24V282.36C295.498 284.707 295.951 286.413 296.858 287.48C297.791 288.52 299.031 289.04 300.578 289.04ZM320.988 285.64C318.161 285.64 316.121 285.04 314.868 283.84C313.614 282.613 312.988 280.747 312.988 278.24V272H316.588V278C316.588 278.827 316.654 279.52 316.788 280.08C316.948 280.64 317.201 281.093 317.548 281.44C317.894 281.76 318.348 282 318.908 282.16C319.468 282.293 320.161 282.36 320.988 282.36C321.841 282.36 322.641 282.307 323.388 282.2C324.161 282.093 324.828 281.973 325.388 281.84V272H328.988V292H325.388V285.12C324.828 285.253 324.161 285.373 323.388 285.48C322.641 285.587 321.841 285.64 320.988 285.64ZM334.969 272H338.569V287.6H338.649L347.369 272H352.169V292H348.569V276.4H348.489L339.769 292H334.969V272ZM250 340.32C247.147 340.32 244.893 339.48 243.24 337.8C241.613 336.12 240.8 333.707 240.8 330.56V329.44C240.8 326.32 241.627 323.92 243.28 322.24C244.933 320.533 247.173 319.68 250 319.68C252.853 319.68 255.093 320.52 256.72 322.2C258.373 323.88 259.2 326.293 259.2 329.44V330.56C259.2 333.68 258.373 336.093 256.72 337.8C255.067 339.48 252.827 340.32 250 340.32ZM250 337.04C251.68 337.04 253 336.52 253.96 335.48C254.947 334.413 255.44 332.773 255.44 330.56V329.44C255.44 327.253 254.947 325.627 253.96 324.56C253 323.493 251.68 322.96 250 322.96C248.32 322.96 246.987 323.493 246 324.56C245.04 325.6 244.56 327.227 244.56 329.44V330.56C244.56 332.747 245.04 334.373 246 335.44C246.987 336.507 248.32 337.04 250 337.04ZM272.192 340.32C269.339 340.32 267.086 339.413 265.432 337.6C263.806 335.787 262.992 332.973 262.992 329.16V327.24C262.992 325.773 263.059 324.36 263.192 323C263.352 321.64 263.619 320.4 263.992 319.28C264.366 318.133 264.859 317.12 265.472 316.24C266.112 315.333 266.912 314.6 267.872 314.04C268.726 313.533 269.566 313.2 270.392 313.04C271.246 312.88 272.139 312.773 273.072 312.72C274.006 312.64 275.006 312.547 276.072 312.44C277.166 312.333 278.392 312.08 279.752 311.68V314.92C278.739 315.293 277.752 315.533 276.792 315.64C275.859 315.72 274.952 315.787 274.072 315.84C273.192 315.893 272.366 315.987 271.592 316.12C270.819 316.227 270.112 316.48 269.472 316.88C268.646 317.44 267.952 318.267 267.392 319.36C266.832 320.427 266.459 321.707 266.272 323.2H266.352C267.019 322.213 267.926 321.453 269.072 320.92C270.246 320.36 271.512 320.08 272.872 320.08C274.152 320.08 275.312 320.293 276.352 320.72C277.419 321.147 278.312 321.773 279.032 322.6C279.779 323.4 280.352 324.4 280.752 325.6C281.179 326.773 281.392 328.12 281.392 329.64V330.76C281.392 333.773 280.566 336.12 278.912 337.8C277.259 339.48 275.019 340.32 272.192 340.32ZM272.192 337.04C273.872 337.04 275.192 336.52 276.152 335.48C277.139 334.44 277.632 332.867 277.632 330.76V329.64C277.632 327.56 277.139 326 276.152 324.96C275.166 323.893 273.846 323.36 272.192 323.36C270.512 323.36 269.179 323.88 268.192 324.92C267.232 325.96 266.752 327.48 266.752 329.48V330.6C266.752 332.76 267.246 334.373 268.232 335.44C269.246 336.507 270.566 337.04 272.192 337.04ZM286.18 320H289.78V328.16H299.78V320H303.38V340H299.78V331.44H289.78V340H286.18V320ZM314.783 340.32C312.516 340.32 310.809 339.787 309.663 338.72C308.543 337.653 307.983 336.2 307.983 334.36C307.983 332.36 308.649 330.787 309.983 329.64C311.343 328.467 313.543 327.88 316.583 327.88H321.183V326.8C321.183 325.493 320.836 324.533 320.143 323.92C319.476 323.28 318.356 322.96 316.783 322.96C315.343 322.96 314.289 323.213 313.623 323.72C312.956 324.2 312.569 324.827 312.463 325.6H308.783C308.836 324.773 309.036 324 309.383 323.28C309.756 322.56 310.276 321.933 310.943 321.4C311.609 320.867 312.423 320.453 313.383 320.16C314.369 319.84 315.503 319.68 316.783 319.68C319.529 319.68 321.543 320.293 322.823 321.52C324.129 322.747 324.783 324.573 324.783 327V340H321.983L321.543 337H321.463C319.836 339.213 317.609 340.32 314.783 340.32ZM315.183 337.04C316.009 337.04 316.783 336.907 317.503 336.64C318.249 336.347 318.889 335.96 319.423 335.48C319.983 334.973 320.409 334.4 320.703 333.76C321.023 333.093 321.183 332.387 321.183 331.64V330.92H316.783C314.916 330.92 313.609 331.24 312.863 331.88C312.116 332.493 311.743 333.307 311.743 334.32C311.743 335.12 312.023 335.773 312.583 336.28C313.169 336.787 314.036 337.04 315.183 337.04ZM330.594 320H333.394L333.794 322.8H333.874C334.807 321.68 335.78 320.88 336.794 320.4C337.834 319.92 339.074 319.68 340.514 319.68C341.714 319.68 342.807 319.893 343.794 320.32C344.78 320.72 345.634 321.333 346.354 322.16C347.074 322.96 347.62 323.973 347.994 325.2C348.394 326.4 348.594 327.813 348.594 329.44V330.56C348.594 332.16 348.394 333.573 347.994 334.8C347.594 336 347.034 337.013 346.314 337.84C345.594 338.667 344.74 339.293 343.754 339.72C342.767 340.12 341.687 340.32 340.514 340.32C339.154 340.32 337.98 340.107 336.994 339.68C336.034 339.253 335.127 338.56 334.274 337.6H334.194V348H330.594V320ZM339.514 337.04C341.14 337.04 342.434 336.52 343.394 335.48C344.354 334.413 344.834 332.773 344.834 330.56V329.44C344.834 327.28 344.34 325.667 343.354 324.6C342.394 323.507 341.114 322.96 339.514 322.96C337.887 322.96 336.594 323.493 335.634 324.56C334.674 325.6 334.194 327.227 334.194 329.44V330.56C334.194 332.72 334.674 334.347 335.634 335.44C336.62 336.507 337.914 337.04 339.514 337.04ZM358.58 340L350.42 320H354.34L360.46 335.6H360.54L366.34 320H370.02L359.18 348H355.5L358.58 340ZM377.792 329.52L371.992 320H375.912L380.592 327.96H383.392V320H386.992V327.96H389.792L394.552 320H398.392L392.592 329.36L398.792 340H394.712L389.792 331.24H386.992V340H383.392V331.24H380.592L375.592 340H371.592L377.792 329.52ZM409.805 340.32C408.391 340.32 407.111 340.107 405.965 339.68C404.845 339.227 403.885 338.587 403.085 337.76C402.285 336.907 401.671 335.88 401.245 334.68C400.818 333.48 400.605 332.107 400.605 330.56V329.44C400.605 327.893 400.818 326.52 401.245 325.32C401.671 324.093 402.271 323.067 403.045 322.24C403.845 321.413 404.791 320.787 405.885 320.36C407.005 319.907 408.245 319.68 409.605 319.68C410.965 319.68 412.191 319.907 413.285 320.36C414.405 320.787 415.351 321.427 416.125 322.28C416.925 323.133 417.538 324.173 417.965 325.4C418.391 326.627 418.605 328.04 418.605 329.64V331.08H404.365C404.418 332.973 404.898 334.44 405.805 335.48C406.738 336.52 408.005 337.04 409.605 337.04C410.885 337.04 411.938 336.8 412.765 336.32C413.591 335.84 414.218 335.067 414.645 334H418.405C417.925 336.08 416.938 337.653 415.445 338.72C413.978 339.787 412.098 340.32 409.805 340.32ZM409.605 322.96C408.085 322.96 406.885 323.4 406.005 324.28C405.125 325.16 404.591 326.44 404.405 328.12H414.845C414.525 324.68 412.778 322.96 409.605 322.96ZM423.406 320H427.006V328.16H437.006V320H440.606V340H437.006V331.44H427.006V340H423.406V320ZM465.409 320H469.009V340H465.409V320ZM446.609 320H450.209V326.4H454.209C456.956 326.4 458.969 327 460.249 328.2C461.556 329.4 462.209 331.067 462.209 333.2C462.209 335.307 461.556 336.973 460.249 338.2C458.943 339.4 456.929 340 454.209 340H446.609V320ZM450.209 329.68V336.72H454.009C455.636 336.72 456.783 336.427 457.449 335.84C458.116 335.253 458.449 334.373 458.449 333.2C458.449 332.053 458.103 331.187 457.409 330.6C456.743 329.987 455.609 329.68 454.009 329.68H450.209Z" fill="white"/>
<path d="M465.2 40H474.6C478.067 40 480.627 40.7733 482.28 42.32C483.96 43.84 484.8 45.9067 484.8 48.52C484.8 50.3867 484.36 51.9867 483.48 53.32C482.627 54.6533 481.307 55.64 479.52 56.28L485.6 68H481.36L475.84 57C475.627 57.0267 475.413 57.04 475.2 57.04C475.013 57.04 474.813 57.04 474.6 57.04H468.96V68H465.2V40ZM474.4 53.6C476.72 53.6 478.373 53.16 479.36 52.28C480.373 51.4 480.88 50.1467 480.88 48.52C480.88 46.92 480.373 45.68 479.36 44.8C478.347 43.8933 476.693 43.44 474.4 43.44H468.96V53.6H474.4ZM497.414 68.32C496.001 68.32 494.721 68.1067 493.574 67.68C492.454 67.2267 491.494 66.5867 490.694 65.76C489.894 64.9067 489.281 63.88 488.854 62.68C488.427 61.48 488.214 60.1067 488.214 58.56V57.44C488.214 55.8933 488.427 54.52 488.854 53.32C489.281 52.0933 489.881 51.0667 490.654 50.24C491.454 49.4133 492.401 48.7867 493.494 48.36C494.614 47.9067 495.854 47.68 497.214 47.68C498.574 47.68 499.801 47.9067 500.894 48.36C502.014 48.7867 502.961 49.4267 503.734 50.28C504.534 51.1333 505.147 52.1733 505.574 53.4C506.001 54.6267 506.214 56.04 506.214 57.64V59.08H491.974C492.027 60.9733 492.507 62.44 493.414 63.48C494.347 64.52 495.614 65.04 497.214 65.04C498.494 65.04 499.547 64.8 500.374 64.32C501.201 63.84 501.827 63.0667 502.254 62H506.014C505.534 64.08 504.547 65.6533 503.054 66.72C501.587 67.7867 499.707 68.32 497.414 68.32ZM497.214 50.96C495.694 50.96 494.494 51.4 493.614 52.28C492.734 53.16 492.201 54.44 492.014 56.12H502.454C502.134 52.68 500.387 50.96 497.214 50.96ZM518.616 68.32C515.922 68.32 513.776 67.48 512.176 65.8C510.602 64.12 509.816 61.64 509.816 58.36V57.24C509.816 55.72 510.029 54.3733 510.456 53.2C510.882 52.0267 511.469 51.0267 512.216 50.2C512.989 49.3733 513.909 48.7467 514.976 48.32C516.069 47.8933 517.282 47.68 518.616 47.68C519.869 47.68 520.976 47.8533 521.936 48.2C522.922 48.52 523.762 48.96 524.456 49.52C525.149 50.08 525.709 50.7467 526.136 51.52C526.562 52.2933 526.856 53.12 527.016 54H523.256C522.962 53.1467 522.456 52.4267 521.736 51.84C521.042 51.2533 520.069 50.96 518.816 50.96C517.216 50.96 515.936 51.48 514.976 52.52C514.042 53.5333 513.576 55.1067 513.576 57.24V58.36C513.576 60.68 514.042 62.3733 514.976 63.44C515.936 64.5067 517.216 65.04 518.816 65.04C520.069 65.04 521.042 64.7333 521.736 64.12C522.456 63.48 522.962 62.64 523.256 61.6H527.016C526.856 62.5867 526.562 63.4933 526.136 64.32C525.709 65.12 525.149 65.8267 524.456 66.44C523.762 67.0267 522.922 67.4933 521.936 67.84C520.976 68.16 519.869 68.32 518.616 68.32Z" fill="white"/>
<circle cx="448" cy="55" r="7" fill="white"/>
<defs>
<filter id="filter0_d_79_4" x="33" y="394" width="38.5" height="40.5" filterUnits="userSpaceOnUse" color-interpolation-filters="sRGB">
<feFlood flood-opacity="0" result="BackgroundImageFix"/>
<feColorMatrix in="SourceAlpha" type="matrix" values="0 0 0 0 0 0 0 0 0 0 0 0 0 0 0 0 0 0 127 0" result="hardAlpha"/>
<feOffset dy="4"/>
<feGaussianBlur stdDeviation="2"/>
<feComposite in2="hardAlpha" operator="out"/>
<feColorMatrix type="matrix" values="0 0 0 0 0 0 0 0 0 0 0 0 0 0 0 0 0 0 0.25 0"/>
<feBlend mode="normal" in2="BackgroundImageFix" result="effect1_dropShadow_79_4"/>
<feBlend mode="normal" in="SourceGraphic" in2="effect1_dropShadow_79_4" result="shape"/>
</filter>
</defs>
</svg>
