<svg width="549" height="578" viewBox="0 0 549 578" fill="none" xmlns="http://www.w3.org/2000/svg">
<path fill-rule="evenodd" clip-rule="evenodd" d="M541.794 572C541.931 568.683 542 565.349 542 562C542 422.824 422.46 310 275 310C127.54 310 8 422.824 8 562C8 565.349 8.06921 568.683 8.20636 572H541.794Z" fill="#777777"/>
<path d="M245.5 522.5L215 425L349 317.5L369.5 324.5L245.5 522.5Z" fill="white" stroke="black" stroke-width="4"/>
<path d="M176.551 307.367V302.867H172.051H89.963V82.6975C102.83 56.0424 144.818 4.5 213.283 4.5C256.399 4.5 295.752 27.4142 324.471 65.0874C353.193 102.764 371.088 155.012 371.088 212.908C371.088 270.804 353.193 323.051 324.471 360.728C295.752 398.402 256.399 421.316 213.283 421.316C201.118 421.316 191.98 420.155 185.561 418.749C181.273 417.81 178.338 416.793 176.551 416.012V307.367Z" fill="white" stroke="black" stroke-width="9"/>
<path d="M303.579 254.802C303.329 254.608 303.092 254.421 302.871 254.245V244.78V203.735C305.286 199.321 311.93 191.919 322.151 191.919C328.781 191.919 335.106 195.444 339.921 201.779C344.738 208.118 347.848 217.073 347.848 227.152C347.848 237.23 344.738 246.186 339.921 252.524C335.106 258.859 328.781 262.385 322.151 262.385C319.761 262.385 319.08 262.341 318.609 262.26C318.246 262.198 318.014 262.126 317.366 261.928C316.998 261.815 316.497 261.661 315.762 261.444C312.896 260.599 310.94 259.61 307.765 257.753C306.544 257.038 304.958 255.877 303.579 254.802Z" stroke="black" stroke-width="9"/>
<path d="M147.686 302.619L123.697 326.608H233.899L209.909 302.619H147.686Z" fill="black" stroke="black" stroke-width="8"/>
<circle cx="160.431" cy="187.419" r="16.9909" fill="#D9D9D9" stroke="black" stroke-width="8"/>
<circle cx="59.9741" cy="187.419" r="16.9909" stroke="black" stroke-width="8"/>
<rect x="23.987" y="166.428" width="219.655" height="29.987" fill="black"/>
<path d="M157.432 146.562H89.9611V126.695H136.441" stroke="black" stroke-width="8"/>
<path d="M175.424 338.853C184.795 340.103 203.537 345.301 203.537 356.096" stroke="black" stroke-width="8"/>
<path fill-rule="evenodd" clip-rule="evenodd" d="M178.435 320.861C76.5836 358.881 3.38751 455.683 0.114388 570C0.0383022 572.657 0 575.324 0 578H8H540.763H548.763C548.763 575.324 548.724 572.657 548.648 570C545.154 447.976 461.992 345.908 349.349 313.986V320.861H344.196C454.986 350.869 537.122 450.569 540.645 570H8.11783C11.6405 450.569 93.7762 350.869 204.566 320.861H178.435Z" fill="black"/>
<path d="M244.769 525.148L366.266 329.444C367.327 327.734 369.965 328.486 369.965 330.499V432.188L244.769 525.148Z" fill="#777777"/>
<path d="M244.769 525.148L366.266 329.444C367.327 327.734 369.965 328.486 369.965 330.499V432.188L244.769 525.148ZM244.769 525.148L214.782 421.318M244.769 525.148L187.794 421.318M244.769 525.148V572.5" stroke="black" stroke-width="8"/>
<circle cx="423.942" cy="481.667" r="23.3632" stroke="black" stroke-width="8"/>
</svg>
