<svg width="427" height="450" viewBox="0 0 427 450" fill="none" xmlns="http://www.w3.org/2000/svg">
<path fill-rule="evenodd" clip-rule="evenodd" d="M138.844 249.668C60.1189 279.055 3.39547 353.575 0.147232 441.753C0.0494449 444.407 0.00012207 447.074 0.00012207 449.753H8.00012H419H427C427 447.074 426.951 444.407 426.853 441.753C423.384 347.59 358.936 269.003 271.833 244.318V249.668H260.573C348.881 270.364 415.259 348.012 418.847 441.753H8.15298C11.7413 348.012 78.1195 270.364 166.428 249.668H138.844Z" fill="white"/>
<path d="M138.375 239.168V234.668H133.875H71.0001V64.5776C81.0334 43.9707 113.389 4.5 165.958 4.5C199.13 4.5 229.479 22.1267 251.681 51.251C273.886 80.3791 287.75 120.816 287.75 165.667C287.75 210.518 273.886 250.956 251.681 280.084C229.479 309.208 199.13 326.835 165.958 326.835C156.555 326.835 149.517 325.937 144.601 324.861C141.748 324.236 139.713 323.574 138.375 323.041V239.168Z" fill="black" stroke="white" stroke-width="9"/>
<path d="M236.833 197.479C236.777 197.435 236.721 197.392 236.667 197.349V190.467V158.789C238.53 155.534 243.376 150.334 250.671 150.334C255.45 150.334 260.1 152.872 263.702 157.612C267.307 162.355 269.667 169.107 269.667 176.751C269.667 184.395 267.307 191.146 263.702 195.889C260.1 200.629 255.45 203.168 250.671 203.168C248.794 203.168 248.351 203.131 248.083 203.085C247.978 203.067 247.845 203.038 247.516 202.94C247.366 202.896 247.202 202.846 246.99 202.781L246.888 202.75C246.633 202.671 246.332 202.58 245.981 202.476C243.864 201.852 242.422 201.129 239.981 199.7C239.09 199.179 237.899 198.31 236.833 197.479Z" stroke="white" stroke-width="9"/>
<path d="M114.917 233.473L96.2501 252.139H182L163.333 233.473H114.917Z" fill="white" stroke="white" stroke-width="8"/>
<path d="M137.167 145.834C137.167 152.646 131.645 158.168 124.833 158.168C118.022 158.168 112.5 152.646 112.5 145.834C112.5 139.023 118.022 133.501 124.833 133.501C131.645 133.501 137.167 139.023 137.167 145.834Z" fill="white" stroke="white" stroke-width="8"/>
<path d="M59.0001 145.834C59.0001 152.646 53.4783 158.168 46.6668 158.168C39.8553 158.168 34.3334 152.646 34.3334 145.834C34.3334 139.023 39.8553 133.501 46.6668 133.501C53.4783 133.501 59.0001 139.023 59.0001 145.834Z" fill="white" stroke="white" stroke-width="8"/>
<rect x="13" y="121" width="170.917" height="23.3334" fill="white"/>
<path d="M124.5 102.458H72V87H108.167" stroke="white" stroke-width="8"/>
<path d="M139 279C146 277.913 160 273.391 160 264" stroke="white" stroke-width="8"/>
<path d="M190.458 408.626L284.176 257.668C285.237 255.958 287.875 256.71 287.875 258.722V336.293L190.458 408.626Z" fill="black"/>
<path d="M190.458 408.626L284.176 257.668C285.237 255.958 287.875 256.71 287.875 258.722V336.293L190.458 408.626ZM190.458 408.626L167.125 327.834M190.458 408.626L146.125 327.834M190.458 408.626V445.472" stroke="white" stroke-width="8"/>
<path d="M347.167 374.794C347.167 384.344 339.425 392.085 329.875 392.085C320.325 392.085 312.583 384.344 312.583 374.794C312.583 365.244 320.325 357.502 329.875 357.502C339.425 357.502 347.167 365.244 347.167 374.794Z" stroke="white" stroke-width="8"/>
</svg>
