<svg width="427" height="450" viewBox="0 0 427 450" fill="none" xmlns="http://www.w3.org/2000/svg">
<path d="M235.973 406.567L259.705 330.7L155.438 247.053L139.487 252.5L235.973 406.567Z" fill="black" stroke="#777777" stroke-width="4"/>
<path d="M236.542 408.627L142.824 257.668C141.763 255.958 139.125 256.71 139.125 258.723V336.293L236.542 408.627Z" fill="black"/>
<path d="M236.542 408.627L142.824 257.668C141.763 255.958 139.125 256.71 139.125 258.723V336.293L236.542 408.627ZM236.542 408.627L259.875 327.835M236.542 408.627L280.875 327.835M236.542 408.627V445.472" stroke="white" stroke-width="8"/>
<path d="M79.8332 374.794C79.8332 384.344 87.5749 392.085 97.1248 392.085C106.675 392.085 114.417 384.344 114.417 374.794C114.417 365.244 106.675 357.502 97.1248 357.502C87.5749 357.502 79.8332 365.244 79.8332 374.794Z" stroke="white" stroke-width="8"/>
<path fill-rule="evenodd" clip-rule="evenodd" d="M288.156 249.668C366.881 279.055 423.605 353.575 426.853 441.753C426.951 444.407 427 447.074 427 449.753H419H7.99979H-0.000213623C-0.000213623 447.074 0.0491028 444.407 0.146881 441.753C3.61557 347.59 68.0643 269.003 155.166 244.318V249.668H166.427C78.1188 270.364 11.7409 348.012 8.15265 441.753H418.847C415.259 348.012 348.881 270.364 260.573 249.668H288.156Z" fill="white"/>
<path d="M288.625 239.168V234.668H293.125H356V64.5776C345.966 43.9707 313.611 4.5 261.042 4.5C227.87 4.5 197.521 22.1267 175.319 51.251C153.114 80.3791 139.25 120.816 139.25 165.667C139.25 210.518 153.114 250.956 175.319 280.084C197.521 309.208 227.87 326.835 261.042 326.835C270.445 326.835 277.483 325.937 282.399 324.861C285.252 324.236 287.287 323.574 288.625 323.041V239.168Z" fill="black" stroke="white" stroke-width="9"/>
<path d="M190.167 197.479C190.223 197.435 190.279 197.392 190.333 197.349V190.467V158.789C188.47 155.534 183.623 150.334 176.329 150.334C171.549 150.334 166.9 152.872 163.298 157.612C159.693 162.355 157.333 169.107 157.333 176.751C157.333 184.395 159.693 191.146 163.298 195.889C166.9 200.629 171.549 203.168 176.329 203.168C178.206 203.168 178.649 203.131 178.917 203.085C179.022 203.067 179.155 203.038 179.484 202.94C179.634 202.896 179.797 202.846 180.01 202.781L180.112 202.75C180.367 202.671 180.668 202.58 181.019 202.476C183.136 201.852 184.578 201.129 187.019 199.7C187.909 199.179 189.101 198.31 190.167 197.479Z" stroke="white" stroke-width="9"/>
<path d="M312.083 234L330.75 252.667H245L263.667 234H312.083Z" fill="white" stroke="white" stroke-width="8"/>
<path d="M289.833 145.834C289.833 152.646 295.355 158.168 302.167 158.168C308.978 158.168 314.5 152.646 314.5 145.834C314.5 139.023 308.978 133.501 302.167 133.501C295.355 133.501 289.833 139.023 289.833 145.834Z" fill="white" stroke="white" stroke-width="8"/>
<path d="M368 145.834C368 152.646 373.522 158.168 380.333 158.168C387.145 158.168 392.667 152.646 392.667 145.834C392.667 139.023 387.145 133.501 380.333 133.501C373.522 133.501 368 139.023 368 145.834Z" fill="white" stroke="white" stroke-width="8"/>
<rect width="74" height="23.3334" transform="matrix(-0.922869 -0.385114 -0.385114 0.922869 355.278 130.499)" fill="white"/>
<rect width="74" height="23.3334" transform="matrix(-0.92156 0.388235 0.388235 0.92156 405.195 102)" fill="white"/>
<path d="M302.5 114.042H355V98.584H318.833" stroke="white" stroke-width="8"/>
<path d="M290.5 263.668C283.208 264.64 268.625 268.685 268.625 277.085" stroke="white" stroke-width="8"/>
</svg>
