<svg width="818" height="384" viewBox="0 0 818 384" fill="none" xmlns="http://www.w3.org/2000/svg">
<rect x="4" y="4" width="810" height="376" rx="10" fill="black" stroke="white" stroke-width="8"/>
<path d="M125.744 32.8866L125.744 18.7444L139.886 18.7444L143.167 22.0254H131.571L145.6 36.0544L145.6 24.4579L148.824 27.6823L148.824 41.8244L134.682 41.8244L131.401 38.5434L142.998 38.5434L128.969 24.5144L128.997 36.1393L125.744 32.8866Z" fill="white"/>
<path d="M43 19L63 39M63 19L43 39" stroke="white" stroke-width="4"/>
<path d="M786 52H40" stroke="white" stroke-width="4"/>
<path d="M83 39H109" stroke="white" stroke-width="4"/>
<path d="M756.4 335.84H760.52L763.84 345.08L769.68 322H773.6L766.24 350H761.76L756.4 335.84Z" fill="white"/>
</svg>
